<?xml version="1.0" encoding="utf-8"?>
<!-- Generator: Adobe Illustrator 19.0.0, SVG Export Plug-In . SVG Version: 6.00 Build 0)  -->
<svg version="1.1" id="图层_1" xmlns="http://www.w3.org/2000/svg" xmlns:xlink="http://www.w3.org/1999/xlink" x="0px" y="0px"
	 viewBox="-379 181 200 200" style="enable-background:new -379 181 200 200;" xml:space="preserve">
<style type="text/css">
	.st0{fill:#666666;}
</style>
<path class="st0" d="M-191.5,181h-174.9c-6.9,0-12.5,5.6-12.5,12.5v124.9c0,6.9,5.6,12.5,12.5,12.5h78.1V346c-2.8,1.6-5.1,4-6.8,6.8
	h-49.4c-5.2,0-9.4,4.2-9.4,9.4c0,5.2,4.2,9.4,9.4,9.4h49.4c3.2,5.6,9.2,9.4,16.1,9.4s12.9-3.8,16.1-9.4h49.4c5.2,0,9.4-4.2,9.4-9.4
	c0-5.2-4.2-9.4-9.4-9.4h-49.4c-1.6-2.8-4-5.1-6.8-6.8v-15.1h78.1c6.9,0,12.5-5.6,12.5-12.5v-125C-179,186.5-184.6,181-191.5,181
	L-191.5,181z M-197.7,312.1h-162.4v-46.8h162.4L-197.7,312.1L-197.7,312.1z M-197.7,246.5h-162.4v-46.8h162.4L-197.7,246.5
	L-197.7,246.5z M-219.8,230.9c5.2,0,9.4-4.2,9.4-9.4s-4.2-9.4-9.4-9.4s-9.4,4.2-9.4,9.4S-225,230.9-219.8,230.9L-219.8,230.9z
	 M-219.8,296.5c5.2,0,9.4-4.2,9.4-9.4c0-5.2-4.2-9.4-9.4-9.4s-9.4,4.2-9.4,9.4C-229.2,292.3-225,296.5-219.8,296.5z"/>
</svg>
