<?xml version="1.0" encoding="utf-8"?>
<!-- Generator: Adobe Illustrator 19.0.0, SVG Export Plug-In . SVG Version: 6.00 Build 0)  -->
<svg version="1.1" id="图层_1" xmlns="http://www.w3.org/2000/svg" xmlns:xlink="http://www.w3.org/1999/xlink" x="0px" y="0px"
	 viewBox="-379 181 200 200" style="enable-background:new -379 181 200 200;" xml:space="preserve">
<style type="text/css">
	.st0{fill:#666666;}
</style>
<path class="st0" d="M-181.2,239v-12.8h-14.9v-12.9c0-8.3-6.8-15.1-15.1-15.1h-13v-15H-237v15h-19.4v-15h-12.8v15h-19.4v-15h-12.8
	v15H-321v-15h-12.8v15h-28.1v28h-14.9V239h14.9v19.4h-14.9v12.8h14.9v19.4h-14.9v12.8h14.9V323h-14.9v12.8h14.9v13.1
	c0,8.3,6.8,15.1,15.1,15.1h13v14.8h12.8V364h19.4v14.8h12.8V364h19.4v14.8h12.8V364h19.4v14.8h12.8V364h28.1l0-28.2h14.9V323h-14.9
	v-19.4h14.9v-12.8h-14.9v-19.4h14.9v-12.8h-14.9V239L-181.2,239L-181.2,239z M-211.9,348.2h-134.2V214h134.2V348.2z M-328.6,231.5
	h43v43.1h-43V231.5L-328.6,231.5z M-272.4,231.5h43.1v43.1h-43.1V231.5L-272.4,231.5z M-272.4,287.8h43.1v42.7h-43.1V287.8z
	 M-328.6,287.8h43v42.7h-43V287.8z"/>
</svg>
