<?xml version="1.0" encoding="utf-8"?>
<!-- Generator: Adobe Illustrator 19.0.0, SVG Export Plug-In . SVG Version: 6.00 Build 0)  -->
<svg version="1.1" id="图层_1" xmlns="http://www.w3.org/2000/svg" xmlns:xlink="http://www.w3.org/1999/xlink" x="0px" y="0px"
	 viewBox="-379 181 200 200" enable-background="new -379 181 200 200" xml:space="preserve">
<g>
	<path fill="#666666" d="M-179.1,310.3l-0.3-2.3l-21.6-75.6c-5.9-20.7-26.8-37-47.2-37h-53.6c-20.4,0-41.9,15.6-49.2,35.6
		l-27.5,75.7l-0.5,2.9v16.3c0,22.5,17.3,40.8,38.6,40.8h122.9c21.3,0,38.6-18.4,38.5-40.9L-179.1,310.3z M-336.7,236.9
		c5-13.7,20.8-25.2,34.8-25.2h53.6c13.7,0,28.6,11.6,32.5,25.4l18.7,65.4h-163.4L-336.7,236.9z M-194.4,325.9
		c0.1,13.6-10.3,24.6-23.1,24.6h-122.9c-12.8,0-23.2-11-23.2-24.5v-9.2h169.2L-194.4,325.9L-194.4,325.9z"/>
	<circle fill="#666666" cx="-229.1" cy="333.8" r="8"/>
</g>
</svg>
