<?xml version="1.0" encoding="utf-8"?>
<!-- Generator: Adobe Illustrator 19.0.0, SVG Export Plug-In . SVG Version: 6.00 Build 0)  -->
<svg version="1.1" id="图层_1" xmlns="http://www.w3.org/2000/svg" xmlns:xlink="http://www.w3.org/1999/xlink" x="0px" y="0px"
	 viewBox="-379 181 200 200" style="enable-background:new -379 181 200 200;" xml:space="preserve">
<style type="text/css">
	.st0{fill:#666666;}
</style>
<path class="st0" d="M-222.8,381h-112.5c-10.4,0-18.8-8.4-18.8-18.8V199.8c0-10.4,8.4-18.8,18.8-18.8h112.5
	c10.4,0,18.8,8.4,18.8,18.8v162.5C-204,372.6-212.4,381-222.8,381z M-216.5,202.4c0-4.9-4-8.9-8.9-8.9h-107.3c-4.9,0-8.9,4-8.9,8.9
	v157.3c0,4.9,4,8.9,8.9,8.9h107.3c4.9,0,8.9-4,8.9-8.9L-216.5,202.4L-216.5,202.4z M-247.8,268.5h-62.5c-3.5,0-6.3-2.8-6.3-6.3
	s2.8-6.3,6.3-6.3h62.5c3.5,0,6.3,2.8,6.3,6.3S-244.3,268.5-247.8,268.5z M-247.8,231h-62.5c-3.5,0-6.3-2.8-6.3-6.3s2.8-6.3,6.3-6.3
	h62.5c3.5,0,6.3,2.8,6.3,6.3S-244.3,231-247.8,231z M-279,318.5c6.9,0,12.5,5.6,12.5,12.5s-5.6,12.5-12.5,12.5s-12.5-5.6-12.5-12.5
	S-285.9,318.5-279,318.5z"/>
</svg>
