<?xml version="1.0" standalone="no"?><!DOCTYPE svg PUBLIC "-//W3C//DTD SVG 1.1//EN" "http://www.w3.org/Graphics/SVG/1.1/DTD/svg11.dtd"><svg t="1513011068891" class="icon" style="" viewBox="0 0 1024 1024" version="1.1" xmlns="http://www.w3.org/2000/svg" p-id="37773" xmlns:xlink="http://www.w3.org/1999/xlink" width="200" height="200"><defs><style type="text/css"></style></defs><path d="M832 612.9c19.9 0 36-16.1 36-36 0-48.1-9.4-94.7-28-138.7-17.9-42.4-43.6-80.5-76.3-113.2-32.7-32.7-70.8-58.4-113.2-76.3-43.9-18.6-90.6-28-138.7-28-48.1 0-94.7 9.4-138.7 28-42.4 17.9-80.5 43.6-113.2 76.3s-58.4 70.8-76.3 113.2c-18.6 43.9-28 90.6-28 138.7 0 19.9 16.1 36 36 36s36-16.1 36-36c0-75.9 29.6-147.3 83.3-201 53.7-53.7 125.1-83.3 201-83.3s147.3 29.6 201 83.3c53.7 53.7 83.3 125.1 83.3 201-0.2 19.9 15.9 36 35.8 36z" p-id="37774" fill="#666666"></path><path d="M544 822.6V534.9c0-17.9-14.1-32-32-32s-32 14.1-32 32v287.8c-23.7 11.8-40 36.2-40 64.5 0 39.8 32.2 72 72 72s72-32.2 72-72c0-28.3-16.3-52.8-40-64.6z" p-id="37775" fill="#666666"></path><path d="M983.8 376.7C958 315.7 921 261 874 214c-47-47-101.8-83.9-162.7-109.7C648.2 77.5 581.1 64 512 64s-136.2 13.5-199.3 40.2C251.7 130 197 167 150 214c-47 47-84 101.7-109.8 162.7C13.5 439.8 0 506.9 0 576c0 72.2 14.7 142 43.8 207.5 28.1 63.3 68.1 119.4 118.9 166.8 14.5 13.6 37.3 12.8 50.9-1.7 13.6-14.5 12.8-37.3-1.7-50.9-43.7-40.8-78.1-89-102.2-143.4C84.7 698.1 72 638.1 72 576c0-59.4 11.6-117 34.6-171.3 22.2-52.4 53.9-99.4 94.3-139.9s87.5-72.2 139.9-94.3C395 147.6 452.6 136 512 136c59.4 0 117 11.6 171.3 34.6 52.4 22.2 99.5 53.9 139.9 94.3 40.4 40.4 72.2 87.5 94.3 139.9C940.4 459 952 516.6 952 576c0 62.1-12.7 122.1-37.6 178.3-24.1 54.4-58.5 102.6-102.2 143.4-14.5 13.6-15.3 36.3-1.7 50.9 7.1 7.6 16.7 11.4 26.3 11.4 8.8 0 17.6-3.2 24.6-9.7 50.8-47.4 90.8-103.5 118.9-166.8 29-65.5 43.7-135.3 43.7-207.5 0-69.1-13.5-136.2-40.2-199.3z" p-id="37776" fill="#666666"></path></svg>