<?xml version="1.0" encoding="utf-8"?>
<!-- Generator: Adobe Illustrator 19.0.0, SVG Export Plug-In . SVG Version: 6.00 Build 0)  -->
<svg version="1.1" id="图层_1" xmlns="http://www.w3.org/2000/svg" xmlns:xlink="http://www.w3.org/1999/xlink" x="0px" y="0px"
	 viewBox="-269.1 181 200 200" style="enable-background:new -269.1 181 200 200;" xml:space="preserve">
<style type="text/css">
	.st0{fill:#666666;}
</style>
<path class="st0" d="M-169.1,356c-48.4,0-87.5-39.2-87.5-87.5s39.2-87.5,87.5-87.5s87.5,39.2,87.5,87.5S-120.8,356-169.1,356z
	 M-169.1,193.5c-41.4,0-75,33.6-75,75s33.6,75,75,75s75-33.6,75-75S-127.7,193.5-169.1,193.5L-169.1,193.5z M-169.1,324.7
	c-31.1,0-56.2-25.2-56.2-56.2c0-31,25.2-56.2,56.2-56.2s56.2,25.2,56.2,56.2C-112.9,299.6-138,324.7-169.1,324.7L-169.1,324.7z
	 M-169.1,224.8c-24.1,0-43.8,19.6-43.8,43.8s19.6,43.8,43.8,43.8s43.8-19.6,43.8-43.8S-145,224.8-169.1,224.8z M-153.5,268.5
	c-5.2,0-9.4-4.2-9.4-9.4c0-5.2,4.2-9.4,9.4-9.4c5.2,0,9.4,4.2,9.4,9.4C-144.1,264.3-148.3,268.5-153.5,268.5z M-194.1,368.5h50
	c3.4,0,6.3,2.8,6.3,6.2c0,3.4-2.8,6.3-6.3,6.3h-50c-3.4,0-6.3-2.8-6.3-6.3C-200.4,371.3-197.6,368.5-194.1,368.5z"/>
</svg>
