<?xml version="1.0" standalone="no"?><!DOCTYPE svg PUBLIC "-//W3C//DTD SVG 1.1//EN" "http://www.w3.org/Graphics/SVG/1.1/DTD/svg11.dtd"><svg t="1513008889791" class="icon" style="" viewBox="0 0 1024 1024" version="1.1" xmlns="http://www.w3.org/2000/svg" p-id="8815" xmlns:xlink="http://www.w3.org/1999/xlink" width="200" height="200"><defs><style type="text/css"></style></defs><path d="M788.821333 854.016a575.658667 575.658667 0 0 0-0.853333-128.512c21.333333-9.216 34.816-24.149333 39.68-45.226667 31.914667 0.512 62.72-1.536 95.317333-11.946666-27.306667 75.946667-72.533333 132.949333-130.389333 182.613333l-3.754667 3.072zM424.106667 943.104c86.528-102.741333 198.485333-182.954667 271.957333-228.608 10.325333 8.96 25.258667 17.237333 39.168 20.053333 5.12 50.346667 1.450667 101.717333-4.096 158.976-71.253333 40.533333-137.813333 59.050667-219.306667 59.050667-32.768 0-53.589333-1.450667-84.394666-8.362667l-3.413334-1.109333zM151.893333 765.013333c7.594667-51.029333 26.709333-136.533333 81.322667-230.826666 5.973333 1.365333 16.554667 3.157333 22.954667 3.157333 13.226667 0 25.856-1.706667 36.864-9.216 90.453333 67.072 210.773333 120.832 366.933333 140.032a816.810667 816.810667 0 0 0-299.861333 256.682667c-86.528-32.085333-150.272-79.872-203.946667-154.965334l-4.266667-4.864zM110.933333 331.946667c13.141333 26.965333 31.573333 58.282667 64.768 86.016-4.266667 12.629333-6.229333 23.637333-6.229333 33.792 0 19.029333 4.693333 39.509333 17.664 52.821333-43.349333 62.72-66.133333 133.290667-76.117333 188.586667C84.650667 638.890667 72.362667 574.805333 72.362667 511.658667c0-63.146667 13.482667-123.136 37.546666-177.493334-0.170667 0.170667-1.621333 2.56 0.938667-2.133333z m213.674667-218.453334a792.746667 792.746667 0 0 1 111.274667 73.301334 81.066667 81.066667 0 0 0-4.608 52.650666 793.856 793.856 0 0 0-147.029334 131.413334 108.970667 108.970667 0 0 0-31.317333-6.058667c-15.018667 0-30.549333 4.010667-42.581333 11.093333-27.818667-27.136-55.466667-72.192-69.12-99.84A429.568 429.568 0 0 1 324.608 113.493333zM697.173333 112.64c-46.336 14.250667-89.6 30.464-129.109333 48.725333a81.834667 81.834667 0 0 0-57.344-23.552 68.522667 68.522667 0 0 0-34.048 7.850667c-30.208-23.893333-57.173333-43.349333-81.664-58.453333 38.570667-11.093333 74.666667-16.213333 116.736-16.213334 66.474667 0 129.109333 15.274667 185.429333 41.642667zM331.349333 404.821333c37.376-42.496 79.104-79.36 132.949334-117.248a71.936 71.936 0 0 0 46.592 14.848 70.144 70.144 0 0 0 34.474666-7.936c62.634667 72.021333 126.293333 163.584 161.28 283.221334a58.88 58.88 0 0 0-32.768 35.584A704.853333 704.853333 0 0 1 333.909333 482.133333a58.709333 58.709333 0 0 0 6.826667-30.293333 80.213333 80.213333 0 0 0-11.52-42.666667l2.133333-4.266666z m620.288 106.922667c0 31.914667-0.682667 62.464-9.386666 90.88-33.792 10.837333-73.557333 20.309333-113.749334 20.309333-8.789333-30.037333-36.608-54.698667-65.536-55.296C737.621333 437.76 659.968 325.973333 586.837333 251.221333a72.533333 72.533333 0 0 0 6.144-31.146666c0-3.242667-0.512-6.229333-0.853333-9.386667a978.176 978.176 0 0 1 171.178667-60.245333 440.832 440.832 0 0 1 188.330666 361.301333zM512 0C229.632 0 0 229.717333 0 512s229.632 512 512 512 512-229.717333 512-512-229.632-512-512-512z" p-id="8816" fill="#666666"></path></svg>