<?xml version="1.0" standalone="no"?><!DOCTYPE svg PUBLIC "-//W3C//DTD SVG 1.1//EN" "http://www.w3.org/Graphics/SVG/1.1/DTD/svg11.dtd"><svg t="1513010860229" class="icon" style="" viewBox="0 0 1118 1024" version="1.1" xmlns="http://www.w3.org/2000/svg" p-id="32204" xmlns:xlink="http://www.w3.org/1999/xlink" width="218.359375" height="200"><defs><style type="text/css"></style></defs><path d="M1070.174916 151.828916C1019.744685 56.212998 929.248142 3.992863 808.573568 0.788559c-80.257792-2.177925-172.406553 18.687599-255.217774 57.339511C369.784245-28.012623 135.031456-34.884352 36.46157 151.828916a419.826355 419.826355 0 0 0-35.04707 88.956975 39.340337 39.340337 0 0 0 76.027109 20.227167 350.946344 350.946344 0 0 1 28.676014-72.447302c88.306101-167.424863 318.828207-107.269069 428.513021-52.094967 5.507397 2.816282 13.693391 4.218165 19.839146 4.218166a38.614362 38.614362 0 0 0 17.711287-4.218166c75.901941-38.276408 161.279109-59.392268 234.364768-57.089174 91.898426 2.428261 157.173595 39.165101 194.010569 109.046456 165.997946 314.359706-248.834201 631.398009-434.946663 753.123996a23.256235 23.256235 0 0 1-24.708184 0c-139.512374-91.260068-375.504327-270.075229-450.605193-475.375962h134.718436l59.129415 129.148455a39.177618 39.177618 0 0 0 35.32244 22.905764h0.513189a39.36537 39.36537 0 0 0 35.322441-22.01707l116.619127-238.445248 5.119375 11.139962a39.356609 39.356609 0 1 0 71.67126-32.543708l-39.678291-87.117004a39.252719 39.252719 0 0 0-35.197272-23.043449h-0.538223a39.36537 39.36537 0 0 0-35.32244 22.01707l-116.706745 238.695584-35.047071-76.289962a39.302786 39.302786 0 0 0-35.722978-22.905764H39.428054A39.440471 39.440471 0 0 0 0.0001 427.148689a40.692152 40.692152 0 0 0 0.763526 7.935658 40.304131 40.304131 0 0 0 1.026378 11.653151c63.610433 247.156948 338.16668 457.451888 496.116317 560.878297a101.936908 101.936908 0 0 0 110.848878 0c204.149186-133.516822 657.633245-484.25038 461.419717-855.786879z" p-id="32205" fill="#666666"></path><path d="M515.054352 445.823771a36.611672 36.611672 0 1 0 73.210827 0 36.611672 36.611672 0 0 0-73.210827 0zM558.575304 548.098633l53.121345 116.856947a39.402921 39.402921 0 0 0 33.532537 23.043448h2.177925a39.352853 39.352853 0 0 0 33.795389-19.075619l113.902979-189.817438h137.860156a39.427954 39.427954 0 1 0 0-78.855909H772.838073a39.64074 39.64074 0 0 0-33.79539 19.07562l-86.754016 144.894603-22.142238-48.640327a39.300283 39.300283 0 1 0-71.546092 32.543708z" p-id="32206" fill="#666666"></path></svg>