<?xml version="1.0" encoding="utf-8"?>
<!-- Generator: Adobe Illustrator 19.0.0, SVG Export Plug-In . SVG Version: 6.00 Build 0)  -->
<svg version="1.1" id="图层_1" xmlns="http://www.w3.org/2000/svg" xmlns:xlink="http://www.w3.org/1999/xlink" x="0px" y="0px"
	 viewBox="-379 181 200 200" enable-background="new -379 181 200 200" xml:space="preserve">
<g>
	<path fill="#666666" d="M-321.3,324.6L-321.3,324.6c10.1,0,18.4-8.2,18.4-18.3c0-3.6-1-7.1-3-10.1l19.8-32.9h3.2l19.8,32.9
		c-5.5,8.5-3.1,19.9,5.4,25.4c8.5,5.5,19.9,3.1,25.4-5.4c4-6.2,4-14.2-0.2-20.4l32.5-57.1h1.2c10.1,0,18.4-8.2,18.4-18.4
		c0-10.1-8.2-18.4-18.4-18.4c-10.1,0-18.4,8.2-18.4,18.4c0,3.7,1.1,7.3,3.2,10.4l-32.6,57.1h-2.8l-19.8-32.9
		c5.5-8.5,3.1-19.9-5.4-25.4s-19.9-3.1-25.4,5.4c-4,6.1-4,14,0,20.1l-19.8,32.9h-1.6c-10.1,0-18.4,8.2-18.4,18.4
		S-331.4,324.6-321.3,324.6z"/>
	<path fill="#666666" d="M-192.3,350.6L-192.3,350.6h-169.1V203.4c0-4.5-3.6-8.1-8.1-8.1s-8.1,3.6-8.1,8.1v155.3
		c0,4.3,3.3,7.9,7.6,8.1h177.6c4.5,0,8.1-3.6,8.1-8.1S-187.8,350.6-192.3,350.6z"/>
</g>
</svg>
