<?xml version="1.0" encoding="utf-8"?>
<!-- Generator: Adobe Illustrator 19.0.0, SVG Export Plug-In . SVG Version: 6.00 Build 0)  -->
<svg version="1.1" id="图层_1" xmlns="http://www.w3.org/2000/svg" xmlns:xlink="http://www.w3.org/1999/xlink" x="0px" y="0px"
	 viewBox="-379 181 200 200" enable-background="new -379 181 200 200" xml:space="preserve">
<path fill="#FFFFFF" d="M-192,276.7c-4.8,0-8.7,3.9-8.7,8.7c0,43.1-35.1,78.3-78.3,78.3s-78.3-35.1-78.3-78.3s35.1-78.3,78.3-78.3
	c18,0,35.2,6.2,49.1,17.4h-23c-4.8,0-8.7,3.9-8.7,8.7c0,4.8,3.9,8.7,8.7,8.7h43.5c4.8,0,8.7-3.9,8.7-8.7v-43.5
	c0-4.8-3.9-8.7-8.7-8.7s-8.7,3.9-8.7,8.7v22c-17.1-14.2-38.6-22-60.9-22c-52.7,0-95.7,42.9-95.7,95.7S-331.7,381-279,381
	s95.7-42.9,95.7-95.7C-183.3,280.5-187.2,276.7-192,276.7"/>
</svg>
