<?xml version="1.0" encoding="utf-8"?>
<!-- Generator: Adobe Illustrator 19.0.0, SVG Export Plug-In . SVG Version: 6.00 Build 0)  -->
<svg version="1.1" id="图层_1" xmlns="http://www.w3.org/2000/svg" xmlns:xlink="http://www.w3.org/1999/xlink" x="0px" y="0px"
	 viewBox="-379 181 200 200" enable-background="new -379 181 200 200" xml:space="preserve">
<path fill="#FFFFFF" d="M-252.7,337.4H-349c5.5-11.6,12.9-29.5,12.9-41.4v-42.1c0-30,25.6-54.5,57.1-54.5s57.1,24.4,57.1,54.5v41.5
	c0,12,7.5,30.2,12.9,42H-252.7z M-279,362.5c-6.5,0-12.1-3.4-15.1-8.4h30.2C-266.9,359.1-272.5,362.5-279,362.5z M-188.3,341.3
	l0.6-0.3c-4.6-8.7-16.6-33.8-16.6-45.6v-41.5c0-39.3-33.5-71.2-74.6-71.2s-74.6,32-74.6,71.2V296c0,10.4-10.2,33.1-16.6,45l0.6,0.3
	c-1,1.3-1.5,2.9-1.6,4.5c0,4.6,3.9,8.4,8.8,8.4h49.5c3.9,14.4,17.6,25.1,33.9,25.1c16.3,0,29.9-10.7,33.9-25.1h49.5
	c4.9,0,8.8-3.8,8.8-8.4C-186.8,344.2-187.4,342.6-188.3,341.3L-188.3,341.3z"/>
</svg>
