<?xml version="1.0" encoding="utf-8"?>
<!-- Generator: Adobe Illustrator 19.0.0, SVG Export Plug-In . SVG Version: 6.00 Build 0)  -->
<svg version="1.1" id="图层_1" xmlns="http://www.w3.org/2000/svg" xmlns:xlink="http://www.w3.org/1999/xlink" x="0px" y="0px"
	 viewBox="-379 181 200 200" enable-background="new -379 181 200 200" xml:space="preserve">
<path fill="#FFFFFF" d="M-356.8,267.9c0-38.1,30.9-69,69-69c38.1,0,69,30.9,69,69s-30.9,69-69,69
	C-325.9,336.9-356.8,306-356.8,267.9 M-186.5,365.6l-38.6-38.6c15.1-16,23.6-37.1,23.6-59.1c0-47.6-38.6-86.2-86.2-86.2
	s-86.2,38.6-86.2,86.2s38.6,86.2,86.2,86.2c17.8,0,35.1-5.5,49.6-15.8l39.4,39.4c3.4,3.4,8.8,3.4,12.2,0
	C-183.2,374.4-183.2,369-186.5,365.6"/>
</svg>
