<?xml version="1.0" encoding="utf-8"?>
<!-- Generator: Adobe Illustrator 19.0.0, SVG Export Plug-In . SVG Version: 6.00 Build 0)  -->
<svg version="1.1" id="图层_1" xmlns="http://www.w3.org/2000/svg" xmlns:xlink="http://www.w3.org/1999/xlink" x="0px" y="0px"
	 viewBox="-379 181 200 200" style="enable-background:new -379 181 200 200;" xml:space="preserve">
<style type="text/css">
	.st0{fill:#FFFFFF;}
</style>
<g>
	<path class="st0" d="M-181.4,261.5c-1.1-5.7-4.5-9.4-8.7-9.3h-0.9c-14.3,0-25.9-11.6-25.9-25.9c0-4.7,2.3-9.9,2.3-9.9
		c2.2-5,0.5-11.1-4-14.2l-0.2-0.2l-24.9-13.9l-0.3-0.1c-1.5-0.7-3.1-1-4.8-1c-3.5,0-7,1.4-9.3,3.8c-3.1,3.1-12.7,11.3-20.4,11.3
		c-7.8,0-17.4-8.3-20.5-11.5c-2.3-2.5-5.8-3.9-9.4-3.9c-1.7,0-3.2,0.3-4.7,0.9l-0.3,0.1l-25.8,14.2l-0.3,0.2
		c-4.5,3.1-6.2,9.2-4,14.2c0.1,0,2.3,5.2,2.3,9.9c0,14.3-11.6,25.9-25.9,25.9h-0.9c-4.2-0.1-7.6,3.6-8.7,9.3
		c-0.1,0.5-2.1,11.2-2.1,19.6c0,8.5,2,19.1,2.1,19.6c1.1,5.7,4.4,9.3,8.5,9.3c0.1,0,0.1,0,0.2,0h0.9c14.3,0,25.9,11.6,25.9,25.9
		c0,4.7-2.3,9.9-2.3,9.9c-2.3,5-0.6,11.1,3.9,14.2l0.2,0.2l24.5,13.7l0.3,0.1c1.5,0.7,3.1,1,4.8,1c3.6,0,7.1-1.4,9.4-3.9
		c2.8-3.1,12.8-12,20.8-12c8.1,0,17.9,8.9,21,12.3c2.2,2.5,5.8,4,9.4,4c1.6,0,3.2-0.3,4.7-1l0.3-0.1l25.4-14l0.2-0.2
		c4.5-3.1,6.2-9.2,4-14.2c-0.1,0-2.3-5.2-2.3-9.9c0-14.3,11.6-25.9,25.9-25.9h0.9c4.2,0.1,7.6-3.6,8.7-9.3
		c0.1-0.5,2.1-11.2,2.1-19.6C-179.3,272.6-181.3,262-181.4,261.5z M-197.8,297.3c-18.7,0.9-33.7,16.5-33.7,35.5
		c0,6.4,2.5,12.4,3,13.7l-22.4,12.4c-0.3,0-0.6-0.1-0.7-0.2c-0.4-0.4-3.7-3.9-8.4-7.3c-7-5.2-13.6-7.8-19.7-7.8
		c-6,0-12.6,2.5-19.5,7.6c-4.7,3.4-7.9,6.8-8.3,7.2c-0.1,0.1-0.4,0.2-0.7,0.2l-21.6-12.1c0.5-1.2,3-7.3,3-13.7
		c0-19-14.9-34.5-33.7-35.5c-0.2-1.5-1.7-9.9-1.7-16.2c0-6.3,1.4-14.7,1.7-16.2c18.7-0.9,33.7-16.5,33.7-35.5c0-6.4-2.5-12.4-3-13.7
		l22.8-12.5h0.1c0.4,0,0.8,0.1,0.9,0.2c0.4,0.4,3.6,3.7,8.2,7c6.8,4.8,13.3,7.3,19.2,7.3c5.9,0,12.3-2.4,19.1-7.2
		c4.5-3.2,7.7-6.4,8.1-6.8c0.1-0.1,0.4-0.2,0.8-0.2h0.1l22,12.2c-0.5,1.2-3,7.3-3,13.7c0,19,14.9,34.5,33.7,35.5
		c0.2,1.5,1.7,9.9,1.7,16.2S-197.4,295.8-197.8,297.3z"/>
	<path class="st0" d="M-279.6,246.6c-19,0-34.5,15.5-34.5,34.5s15.5,34.5,34.5,34.5c19.1,0,34.6-15.5,34.5-34.5
		C-245.1,262.1-260.6,246.6-279.6,246.6z M-279.6,303.8c-12.6,0-22.8-10.2-22.8-22.8c0-12.6,10.2-22.8,22.8-22.8
		c12.6,0,22.8,10.3,22.8,22.8C-256.8,293.6-266.9,303.8-279.6,303.8z"/>
</g>
</svg>
