<?xml version="1.0" encoding="utf-8"?>
<!-- Generator: Adobe Illustrator 19.0.0, SVG Export Plug-In . SVG Version: 6.00 Build 0)  -->
<svg version="1.1" id="图层_1" xmlns="http://www.w3.org/2000/svg" xmlns:xlink="http://www.w3.org/1999/xlink" x="0px" y="0px"
	 viewBox="-379 181 200 200" style="enable-background:new -379 181 200 200;" xml:space="preserve">
<style type="text/css">
	.st0{fill:#666666;}
</style>
<path class="st0" d="M-279,181c-51.2,0-92.9,19.6-92.9,43.7v112.5c0,24.1,41.7,43.7,92.9,43.7s92.9-19.6,92.9-43.7V224.8
	C-186.1,200.6-227.8,181-279,181z M-279,199.8c48.2,0,75.1,17.5,75.1,25s-27,25-75.1,25c-48.2,0-75.1-17.5-75.1-25
	S-327.2,199.8-279,199.8z M-203.9,337.3c0,7.5-27,25-75.1,25c-48.2,0-75.1-17.5-75.1-25v-31.4c17,10.2,45.5,16.8,75.1,16.8
	s58.1-6.6,75.1-16.8V337.3z M-279,306c-48.2,0-75.1-17.5-75.1-25v-31.4c17,10.2,45.5,16.8,75.1,16.8s58.1-6.6,75.1-16.8V281
	C-203.9,288.5-230.8,306-279,306z"/>
</svg>
