<?xml version="1.0" encoding="utf-8"?>
<!-- Generator: Adobe Illustrator 19.0.0, SVG Export Plug-In . SVG Version: 6.00 Build 0)  -->
<svg version="1.1" id="图层_1" xmlns="http://www.w3.org/2000/svg" xmlns:xlink="http://www.w3.org/1999/xlink" x="0px" y="0px"
	 viewBox="-379 181 200 200" style="enable-background:new -379 181 200 200;" xml:space="preserve">
<style type="text/css">
	.st0{fill:#FFFFFF;}
</style>
<path class="st0" d="M-279,364.3c-20.8,0-40.9-7.8-56.2-21.9c14.3-4.6,38.2-11.4,55.6-11.4c17.7,0,42.2,7,56.4,11.6
	C-238.4,356.6-258.3,364.3-279,364.3 M-279,306c-13.8,0-25-11.2-25-25v-25c0-13.8,11.2-25,25-25c13.8,0,25,11.2,25,25v25
	C-254,294.8-265.2,306-279,306 M-279,197.7c45.9,0,83.3,37.4,83.3,83.3c0,17.2-5.4,34.1-15.4,48.1c-9-3.1-27.8-9.3-46.5-12.5
	c12.1-7.3,20.3-20.5,20.3-35.6v-25c0-23-18.7-41.7-41.7-41.7c-23,0-41.7,18.7-41.7,41.7v25c0,15,8.1,28.1,20,35.4
	c-18.4,3.2-37.1,9.1-46.5,12.4c-9.9-14-15.2-30.7-15.2-47.8C-362.3,235.1-325,197.7-279,197.7 M-279,181c-55.1,0-100,44.9-100,100
	s44.9,100,100,100s100-44.9,100-100S-223.9,181-279,181"/>
</svg>
